<?xml version="1.0" encoding="UTF-8" standalone="no"?>
<!-- Created with Inkscape (http://www.inkscape.org/) -->

<svg
   width="16.409122mm"
   height="17.283581mm"
   viewBox="0 0 16.409122 17.283581"
   version="1.1"
   id="svg1"
   xmlns="http://www.w3.org/2000/svg"
   xmlns:svg="http://www.w3.org/2000/svg">
  <defs
     id="defs1" />
  <g
     id="layer1"
     transform="translate(-69.462438,-103.90073)">
    <path
       d="m 78.130573,103.9359 -0.202827,0.45002 c 0.811308,0.28126 1.284571,0.67502 1.588812,1.20942 -0.439459,1.32192 -2.636751,5.68149 -4.698826,9.36603 h -1.11555 l -0.169022,0.78753 h 0.845113 c -0.811308,1.40631 -1.588812,2.64387 -2.197293,3.5439 -0.845112,1.20944 -1.521203,1.40632 -1.893053,1.40632 -0.878917,0 -1.216962,0.45002 0,0.45002 1.014135,0 1.893053,-0.56253 2.569144,-1.51882 0.676089,-0.95629 1.487397,-2.33448 2.366314,-3.88142 h 5.881985 l 0.304241,2.33448 c 0.202826,1.43443 1.35218,3.06576 3.448059,3.06576 1.216962,0 1.149354,-0.61878 0.608481,-0.61878 -0.743699,0 -1.014136,-0.75941 -1.284571,-2.897 l -0.236632,-1.88446 h 1.149354 l 0.169022,-0.78753 h -1.419789 l -0.878917,-6.63779 c -0.169023,-1.32194 -1.41979,-3.29076 -4.834045,-4.38768 z m 2.873383,11.02547 h -5.341112 c 1.690225,-3.03764 3.414255,-6.44091 4.225564,-8.29724 0.101413,0.45002 0.169022,0.92817 0.236631,1.51882 z"
       id="text1"
       style="font-style:italic;font-weight:bold;font-size:50.8px;font-family:odstemplik;-inkscape-font-specification:'odstemplik, Bold Italic';text-align:center;text-anchor:middle;stroke:#000000;stroke-width:0.0703425;stroke-linejoin:round"
       aria-label="A" />
    <path
       style="font-style:italic;font-weight:500;font-size:14.1111px;font-family:odstemplik;-inkscape-font-specification:'odstemplik Medium Italic';text-align:center;text-anchor:middle;stroke:#ffffff;stroke-width:0.06;stroke-linejoin:round;stroke-dasharray:none;stroke-opacity:1"
       d="m 73.328611,116.23534 c 0.141111,-0.69144 0.239889,-1.32644 0.310444,-1.91911 0.804333,-1.27 1.862665,-2.97744 1.862665,-3.92289 0,-0.93133 -1.28411,-1.01599 -1.453443,-1.01599 -0.08467,0 -0.465666,0.0423 -0.508,0.0988 -0.324555,0.42334 -0.225777,2.52589 -1.044221,6.71689 -0.02822,0.16933 -0.04233,0.35277 -0.04233,0.53622 0,0.66322 0.211666,1.28411 0.945443,1.28411 0.790222,0 1.41111,-0.62089 1.91911,-1.63689 l 0.409222,-0.77611 -0.155222,-0.0847 -0.409222,0.80434 c -0.606777,1.17122 -1.28411,1.42522 -1.608666,1.42522 -0.26811,0 -0.338666,-0.23989 -0.338666,-0.56445 0,-0.29633 0.07056,-0.64911 0.112889,-0.94544 z m 0.352777,-2.34244 c 0.282222,-2.51178 0.112889,-4.03578 0.338667,-4.318 0.02822,-0.0282 0.08467,-0.0282 0.08467,-0.0282 0.197556,0 1.227666,0.18344 1.227666,0.84666 0,0.83256 -0.888999,2.286 -1.650999,3.49956 z m 5.376336,0.90311 c 0,0.15522 -0.04233,1.397 -0.578555,2.22955 -0.127,-0.0564 -0.127,-0.0564 -0.155222,-0.0564 -0.07055,0 -0.141111,0.0847 -0.141111,0.15522 0,0.0564 0.02822,0.11289 0.112889,0.14111 -0.254,0.29633 -0.592666,0.49389 -1.058333,0.49389 -0.77611,0 -1.044221,-0.40922 -1.044221,-1.07244 0,-0.67734 0.239889,-2.82222 1.862665,-2.82222 0.776111,0 1.001888,0.39511 1.001888,0.93133 z m -1.820332,3.21733 c 0.635,0 1.199444,-0.254 1.650999,-0.66322 h 0.07056 c 1.100665,0 1.509887,-1.016 1.876776,-1.74978 l -0.155226,-0.0847 c -0.423333,0.81845 -0.677333,1.60867 -1.608666,1.66511 0.451556,-0.49388 0.733778,-1.15711 0.733778,-1.80622 0,-0.95955 -0.620889,-1.76388 -1.749777,-1.76388 -1.326443,0 -2.652887,1.21355 -2.652887,2.61055 0,1.04422 0.790222,1.79211 1.834443,1.79211 z m 7.055544,-3.556 c 0,0.95956 -0.522111,2.00378 -0.522111,2.77989 0,0.42333 0.141111,0.77611 0.663222,0.77611 0.804332,0 0.677333,-0.28225 0.409222,-0.28225 -0.183445,0 -0.239889,-0.15523 -0.239889,-0.381 0,-0.57856 0.479777,-1.76389 0.479777,-2.49767 0,-0.77611 -0.507999,-1.24177 -1.100665,-1.24177 -0.592667,0 -1.368777,0.47977 -2.201332,1.50988 0.127,-0.59266 0.211666,-0.91722 0.338666,-1.32644 0,-0.0564 -0.07055,-0.0988 -0.169333,-0.0988 h -0.874888 l -0.02822,0.16934 h 0.253999 c -0.05644,0.381 -0.310444,1.03011 -0.620888,1.65099 l 0.155222,0.0847 -0.451555,2.32833 h 0.846666 l 0.437444,-2.22955 c 0.959555,-1.34056 1.79211,-1.83444 2.314221,-1.83444 0.239888,0 0.310444,0.254 0.310444,0.59266 z"
       id="text2"
       aria-label="lon" />
  </g>
</svg>
