<?xml version="1.0" encoding="UTF-8" standalone="no"?>
<!-- Created with Inkscape (http://www.inkscape.org/) -->

<svg
   width="15mm"
   height="15.799365mm"
   viewBox="0 0 15 15.799365"
   version="1.1"
   id="svg1"
   xmlns="http://www.w3.org/2000/svg"
   xmlns:svg="http://www.w3.org/2000/svg">
  <defs
     id="defs1" />
  <g
     id="layer1"
     transform="matrix(0.91412561,0,0,0.91412561,-65.407267,-103.03189)">
    <path
       d="m 80.219813,112.74604 -0.202827,0.45002 c 0.811308,0.28126 1.284571,0.67502 1.588812,1.20942 -0.439459,1.32192 -2.636751,5.68149 -4.698826,9.36603 h -1.11555 l -0.169022,0.78753 h 0.845113 c -0.811308,1.40631 -1.588812,2.64387 -2.197293,3.5439 -0.845112,1.20944 -1.521203,1.40632 -1.893053,1.40632 -0.878917,0 -1.216962,0.45002 0,0.45002 1.014135,0 1.893053,-0.56253 2.569144,-1.51882 0.676089,-0.95629 1.487397,-2.33448 2.366314,-3.88142 h 5.881985 l 0.304241,2.33448 c 0.202826,1.43443 1.35218,3.06576 3.448059,3.06576 1.216962,0 1.149354,-0.61878 0.608481,-0.61878 -0.743699,0 -1.014136,-0.75941 -1.284571,-2.897 l -0.236632,-1.88446 h 1.149354 l 0.169022,-0.78753 h -1.419789 l -0.878917,-6.63779 c -0.169023,-1.32194 -1.41979,-3.29076 -4.834045,-4.38768 z m 2.873383,11.02547 h -5.341112 c 1.690225,-3.03764 3.414255,-6.44091 4.225564,-8.29724 0.101413,0.45002 0.169022,0.92817 0.236631,1.51882 z"
       id="text1"
       style="font-style:italic;font-weight:bold;font-size:50.8px;font-family:odstemplik;-inkscape-font-specification:'odstemplik, Bold Italic';text-align:center;text-anchor:middle;stroke:#000000;stroke-width:0.0703425;stroke-linejoin:round"
       aria-label="A" />
  </g>
  <circle
     id="path1"
     style="fill:#000000;stroke:#ffffff;stroke-width:0.00750918"
     cx="2.4518557"
     cy="14.197296"
     r="0.0011945403" />
  <path
     id="text3"
     style="font-style:italic;font-weight:500;font-size:14.1111px;font-family:odstemplik;-inkscape-font-specification:'odstemplik Medium Italic';text-align:center;writing-mode:lr-tb;direction:ltr;text-anchor:middle;fill:#000000;stroke:#ffffff;stroke-width:0.0564567;stroke-linejoin:round;stroke-dasharray:none;stroke-opacity:1"
     d="m 4.0288946,4.7597276 c -0.07959,0 -0.4377107,0.0397 -0.4775008,0.0928 -0.3050856,0.39792 -0.2123827,2.37433 -0.9817144,6.3138604 -0.026536,0.15917 -0.039837,0.33178 -0.039837,0.50421 0,0.62343 0.1991853,1.20711 0.8889364,1.20711 0.7428066,0 1.3261039,-0.58384 1.8036224,-1.53888 l 0.1753563,-0.33226 c -2.284e-4,0.0122 -4.893e-4,0.0247 -4.893e-4,0.0369 0,0.98156 0.7428703,1.6846 1.7244339,1.6846 0.5968982,0 1.1275359,-0.23905 1.5520009,-0.62372 h 0.066543 c 1.0346264,0 1.418916,-0.95502 1.763781,-1.64476 l -0.145718,-0.0792 c -0.3979381,0.76934 -0.6367158,1.51205 -1.5121634,1.56511 0.4244554,-0.46425 0.6897697,-1.08755 0.6897697,-1.69771 0,-0.9019904 -0.5836157,-1.6583904 -1.644769,-1.6583904 -1.081194,0 -2.1625197,0.85791 -2.4307288,1.9420704 l -0.3837443,0.75437 c -0.5703714,1.10095 -1.2070805,1.33972 -1.5121664,1.33972 -0.2520227,0 -0.3181705,-0.22536 -0.3181705,-0.53045 0,-0.27854 0.0661,-0.61037 0.1058907,-0.88893 0.132643,-0.64995 0.2256181,-1.2469904 0.2919443,-1.8041004 0.7560708,-1.1938 1.7506721,-2.79866 1.7506721,-3.68738 0,-0.87545 -1.2067786,-0.955 -1.3659489,-0.955 z m 0.052941,0.15933 c 0.1857071,0 1.1541677,0.17224 1.1541677,0.79567 0,0.7826 -0.8357233,2.14881 -1.552004,3.28955 0.2652961,-2.36107 0.1059478,-3.7937 0.318171,-4.05899 0.026537,-0.0265 0.079665,-0.0262 0.079665,-0.0262 z m 9.3814254,3.67037 c -0.557099,0 -1.286236,0.45109 -2.06884,1.4193904 0.11938,-0.5571104 0.198791,-0.8622704 0.31817,-1.2469304 0,-0.0531 -0.06648,-0.0928 -0.15932,-0.0928 h -0.822394 l -0.02623,0.15933 h 0.238506 c -0.05305,0.35814 -0.291578,0.96836 -0.583391,1.5519904 l 0.145728,0.0792 -0.424559,2.18882 h 0.796159 l 0.410948,-2.09556 c 0.901983,-1.2601204 1.684436,-1.7244404 2.175219,-1.7244404 0.225495,0 0.291944,0.23881 0.291944,0.55716 0,0.9019904 -0.490613,1.8833504 -0.490613,2.6128904 0,0.39793 0.132436,0.72961 0.623218,0.72961 0.756077,0 0.636745,-0.26523 0.384722,-0.26523 -0.172433,0 -0.225392,-0.14625 -0.225392,-0.35849 0,-0.54383 0.450785,-1.65791 0.450785,-2.3476604 0,-0.72954 -0.477556,-1.16728 -1.034664,-1.16728 z m -5.5721142,0.239 c 0.7295409,0 0.9418862,0.37129 0.9418862,0.87533 0,0.14591 -0.040006,1.3129604 -0.5440513,2.0955604 -0.1193796,-0.0531 -0.1192011,-0.0529 -0.1457278,-0.0529 -0.066326,0 -0.1326151,0.0799 -0.1326151,0.14621 0,0.0531 0.026311,0.10608 0.1059003,0.13261 -0.2387593,0.27855 -0.5571079,0.4639 -0.9948363,0.4639 -0.7295412,0 -0.9812253,-0.38453 -0.9812253,-1.00795 0,-0.63669 0.225261,-2.6527204 1.7506693,-2.6527204 z" />
</svg>
