<?xml version="1.0" encoding="UTF-8" standalone="no"?>
<!-- Created with Inkscape (http://www.inkscape.org/) -->

<svg
   width="400"
   height="400"
   viewBox="0 0 105.83333 105.83333"
   version="1.1"
   id="svg5"
   xml:space="preserve"
   xmlns="http://www.w3.org/2000/svg"
   xmlns:svg="http://www.w3.org/2000/svg"><defs
     id="defs2" /><g
     aria-label="T"
     transform="matrix(2.9705651,0,0,2.9645476,-3.0369368,0.7586793)"
     id="text3199"
     style="font-size:42.7903px;line-height:1.25;font-family:'Times New Roman';-inkscape-font-specification:'Times New Roman, Normal';fill:#9f8939;stroke-width:0.445731"><path
       d="m 10.962595,29.547518 v -1.52524 l 4.450358,-0.56413 V 3.7437978 h -1.065578 q -4.7846578,0 -6.7277719,0.417874 L 7.0554732,9.3642032 H 5.1541464 V 1.5290655 H 32.378638 v 7.8351377 h -1.92222 L 29.892288,4.1616718 Q 28.158111,3.7855852 23.039154,3.7855852 H 22.015363 V 27.458148 l 4.450358,0.56413 v 1.52524 z"
       style="font-weight:bold;font-family:'Liberation Serif';-inkscape-font-specification:'Liberation Serif, Bold'"
       id="path7489" /></g><g
     aria-label="money"
     id="text1934"
     style="font-size:10.2185px;line-height:1.25;font-family:Garute;-inkscape-font-specification:'Garute, Normal';fill:#171717;fill-opacity:1;stroke-width:0.239497"
     transform="matrix(2.9675548,0,0,2.9675548,-3.0369368,0.7586793)"><path
       d="m 1.7395829,26.144538 h 1.9926075 v 0.950321 q 0.1124035,-0.245244 0.3167735,-0.449614 0.20437,-0.214589 0.4598325,-0.367866 0.265681,-0.163496 0.5620175,-0.255463 0.306555,-0.09197 0.61311,-0.09197 0.2554625,0 0.5415805,0.05109 0.286118,0.05109 0.551799,0.183933 0.2758995,0.122622 0.490488,0.347429 0.2145885,0.224807 0.3372105,0.572236 0.1124035,-0.245244 0.3167735,-0.449614 0.20437,-0.214588 0.4598325,-0.367866 0.2656811,-0.153277 0.5620176,-0.245244 0.2963365,-0.09197 0.6028915,-0.09197 0.306555,0 0.664202,0.08175 0.357648,0.07153 0.653984,0.286118 0.306555,0.20437 0.500707,0.572236 0.20437,0.357647 0.20437,0.929883 v 3.801282 H 9.5771725 v -2.99402 q 0,-0.296337 -0.091966,-0.500707 Q 9.4034585,27.902112 9.2603995,27.77949 9.127559,27.656868 8.9538445,27.605776 8.78013,27.544466 8.616634,27.544466 q -0.1634961,0 -0.3269921,0.06131 -0.163496,0.05109 -0.2963365,0.173714 -0.122622,0.122622 -0.20437,0.326992 -0.081748,0.20437 -0.081748,0.500707 v 2.99402 h -1.992608 v -2.99402 q 0,-0.296337 -0.091966,-0.500707 -0.081748,-0.20437 -0.224807,-0.326992 -0.1328405,-0.122622 -0.306555,-0.173714 -0.1737145,-0.06131 -0.3372105,-0.06131 -0.163496,0 -0.347429,0.06131 -0.1737145,0.05109 -0.326992,0.173714 -0.1532775,0.122622 -0.2554625,0.326992 -0.091967,0.20437 -0.091967,0.500707 v 2.99402 H 1.7395829 Z"
       id="path7478"
       style="fill:#171717;fill-opacity:1" /><path
       d="m 12.213542,28.842222 q 0,-0.653984 0.194151,-1.185346 0.20437,-0.54158 0.572236,-0.919665 0.367866,-0.388303 0.878791,-0.592673 0.521144,-0.214588 1.154691,-0.214588 0.633547,0 1.144472,0.214588 0.510925,0.20437 0.878791,0.592673 0.367866,0.378085 0.562017,0.919665 0.20437,0.531362 0.20437,1.185346 0,0.653984 -0.20437,1.195565 -0.194151,0.531362 -0.562017,0.919665 -0.367866,0.378084 -0.878791,0.592673 -0.510925,0.20437 -1.144472,0.20437 -0.633547,0 -1.154691,-0.20437 -0.510925,-0.214589 -0.878791,-0.592673 -0.367866,-0.388303 -0.572236,-0.919665 -0.194151,-0.541581 -0.194151,-1.195565 z m 1.808674,0 q 0,0.521144 0.2759,0.807262 0.275899,0.286118 0.715295,0.286118 0.449614,0 0.715295,-0.286118 0.265681,-0.286118 0.265681,-0.807262 0,-0.521143 -0.265681,-0.807261 -0.265681,-0.286118 -0.715295,-0.286118 -0.439396,0 -0.715295,0.286118 -0.2759,0.286118 -0.2759,0.807261 z"
       id="path7480"
       style="fill:#171717;fill-opacity:1" /><path
       d="m 18.54902,26.144538 h 1.992607 v 0.950321 q 0.112404,-0.245244 0.316774,-0.449614 0.20437,-0.214589 0.459832,-0.367866 0.265681,-0.163496 0.562018,-0.255463 0.306555,-0.09197 0.61311,-0.09197 0.306555,0 0.664202,0.09197 0.357648,0.09197 0.653984,0.326992 0.306555,0.224807 0.500707,0.602892 0.20437,0.378084 0.20437,0.95032 v 3.699097 h -1.992608 v -2.99402 q 0,-0.296337 -0.09197,-0.500707 -0.08175,-0.20437 -0.224807,-0.326992 -0.132841,-0.122622 -0.306555,-0.173714 -0.173715,-0.06131 -0.337211,-0.06131 -0.163496,0 -0.347429,0.06131 -0.173714,0.05109 -0.326992,0.173714 -0.153277,0.122622 -0.255462,0.326992 -0.09197,0.20437 -0.09197,0.500707 v 2.99402 h -1.9926 z"
       id="path7482"
       style="fill:#171717;fill-opacity:1" /><path
       d="m 28.685766,28.157583 q -0.05109,-0.235026 -0.235025,-0.429177 -0.173715,-0.194152 -0.531362,-0.194152 -0.286118,0 -0.470051,0.173715 -0.183933,0.163496 -0.2759,0.449614 z m -0.735732,1.778019 q 0.296337,0 0.490488,-0.112404 0.20437,-0.112403 0.2759,-0.306555 h 2.033481 q -0.102185,0.490488 -0.357647,0.899228 -0.245244,0.40874 -0.61311,0.715295 -0.357648,0.296337 -0.827699,0.459833 -0.459832,0.163496 -0.991194,0.163496 -0.633547,0 -1.154691,-0.20437 -0.510925,-0.214589 -0.878791,-0.592673 -0.367866,-0.388303 -0.572236,-0.919665 -0.194151,-0.541581 -0.194151,-1.195565 0,-0.653984 0.194151,-1.185346 0.20437,-0.54158 0.572236,-0.919665 0.367866,-0.388303 0.878791,-0.592673 0.521144,-0.214588 1.154691,-0.214588 0.633547,0 1.144472,0.173714 0.510925,0.173715 0.878791,0.551799 0.367866,0.367866 0.562017,0.960539 0.20437,0.582455 0.20437,1.399935 h -3.576475 q 0,0.183933 0.04087,0.347429 0.05109,0.163496 0.143059,0.296336 0.09197,0.122622 0.235026,0.20437 0.153277,0.07153 0.357647,0.07153 z"
       id="path7484"
       style="fill:#171717;fill-opacity:1" /><path
       d="m 31.414114,32.255201 q 0.235025,0 0.470051,0 0.245244,0 0.459832,-0.05109 0.214589,-0.04087 0.378085,-0.163496 0.173714,-0.122622 0.255462,-0.378085 l -1.818893,-5.51799 h 1.992608 l 0.797043,2.411566 0.74595,-2.411566 h 1.992608 l -1.788238,5.742797 q -0.143059,0.449614 -0.286118,0.827699 -0.13284,0.378084 -0.357647,0.653984 -0.224807,0.275899 -0.572236,0.429177 -0.347429,0.153277 -0.909447,0.153277 h -1.7678 v -1.696271 z"
       id="path7486"
       style="fill:#171717;fill-opacity:1" /></g><g
     aria-label="money"
     id="text892"
     style="font-size:10.2185px;line-height:1.25;font-family:Garute;-inkscape-font-specification:'Garute, Normal';fill:#751f25;stroke-width:0.239497"
     transform="matrix(2.9675548,0,0,2.9675548,-3.0369368,0.7586793)"><path
       d="m 1.0233802,25.728624 h 1.9926075 v 0.95032 Q 3.1283912,26.4337 3.3327612,26.22933 q 0.20437,-0.214588 0.4598325,-0.367866 0.265681,-0.163496 0.5620175,-0.255462 0.306555,-0.09197 0.61311,-0.09197 0.2554625,0 0.5415805,0.05109 0.286118,0.05109 0.551799,0.183933 0.2758996,0.122622 0.4904881,0.347429 0.2145885,0.224807 0.3372105,0.572236 0.1124035,-0.245244 0.3167735,-0.449614 0.20437,-0.214589 0.4598325,-0.367866 0.265681,-0.153278 0.5620175,-0.245244 0.2963365,-0.09197 0.6028915,-0.09197 0.306555,0 0.6642025,0.08175 0.3576475,0.07153 0.6539842,0.286118 0.306555,0.20437 0.500706,0.572236 0.20437,0.357648 0.20437,0.929884 v 3.801282 H 8.8609698 v -2.994021 q 0,-0.296336 -0.091966,-0.500706 -0.081748,-0.20437 -0.224807,-0.326992 -0.1328405,-0.122622 -0.306555,-0.173715 -0.1737145,-0.06131 -0.3372105,-0.06131 -0.163496,0 -0.326992,0.06131 -0.163496,0.05109 -0.2963365,0.173715 -0.122622,0.122622 -0.20437,0.326992 -0.081748,0.20437 -0.081748,0.500706 v 2.994021 H 4.9983767 v -2.994021 q 0,-0.296336 -0.091966,-0.500706 -0.081748,-0.20437 -0.224807,-0.326992 -0.1328405,-0.122622 -0.306555,-0.173715 -0.1737145,-0.06131 -0.3372105,-0.06131 -0.163496,0 -0.347429,0.06131 -0.1737145,0.05109 -0.326992,0.173715 -0.1532775,0.122622 -0.2554625,0.326992 -0.091966,0.20437 -0.091966,0.500706 v 2.994021 H 1.0233802 Z"
       id="path7467" /><path
       d="m 11.497339,28.426308 q 0,-0.653984 0.194152,-1.185346 0.20437,-0.541581 0.572236,-0.919665 0.367866,-0.388303 0.878791,-0.592673 0.521143,-0.214589 1.15469,-0.214589 0.633547,0 1.144472,0.214589 0.510925,0.20437 0.878791,0.592673 0.367866,0.378084 0.562018,0.919665 0.20437,0.531362 0.20437,1.185346 0,0.653984 -0.20437,1.195564 -0.194152,0.531362 -0.562018,0.919665 -0.367866,0.378085 -0.878791,0.592673 -0.510925,0.20437 -1.144472,0.20437 -0.633547,0 -1.15469,-0.20437 -0.510925,-0.214588 -0.878791,-0.592673 -0.367866,-0.388303 -0.572236,-0.919665 -0.194152,-0.54158 -0.194152,-1.195564 z m 1.808675,0 q 0,0.521143 0.275899,0.807261 0.2759,0.286118 0.715295,0.286118 0.449614,0 0.715295,-0.286118 0.265681,-0.286118 0.265681,-0.807261 0,-0.521144 -0.265681,-0.807262 -0.265681,-0.286118 -0.715295,-0.286118 -0.439395,0 -0.715295,0.286118 -0.275899,0.286118 -0.275899,0.807262 z"
       id="path7469" /><path
       d="m 17.832817,25.728624 h 1.992608 v 0.95032 q 0.112403,-0.245244 0.316773,-0.449614 0.20437,-0.214588 0.459833,-0.367866 0.265681,-0.163496 0.562017,-0.255462 0.306555,-0.09197 0.61311,-0.09197 0.306555,0 0.664203,0.09197 0.357647,0.09197 0.653984,0.326992 0.306555,0.224807 0.500706,0.602891 0.20437,0.378085 0.20437,0.950321 v 3.699097 h -1.992607 v -2.994021 q 0,-0.296336 -0.09197,-0.500706 -0.08175,-0.20437 -0.224807,-0.326992 -0.13284,-0.122622 -0.306555,-0.173715 -0.173714,-0.06131 -0.33721,-0.06131 -0.163496,0 -0.347429,0.06131 -0.173715,0.05109 -0.326992,0.173715 -0.153278,0.122622 -0.255463,0.326992 -0.09197,0.20437 -0.09197,0.500706 v 2.994021 H 17.83281 Z"
       id="path7471" /><path
       d="m 27.969564,27.741668 q -0.05109,-0.235025 -0.235026,-0.429177 -0.173714,-0.194151 -0.531362,-0.194151 -0.286118,0 -0.470051,0.173714 -0.183933,0.163496 -0.275899,0.449614 z m -0.735732,1.778019 q 0.296336,0 0.490488,-0.112403 0.20437,-0.112404 0.275899,-0.306555 h 2.033482 q -0.102185,0.490488 -0.357648,0.899228 -0.245244,0.40874 -0.61311,0.715295 -0.357647,0.296336 -0.827698,0.459832 -0.459833,0.163496 -0.991195,0.163496 -0.633547,0 -1.15469,-0.20437 -0.510925,-0.214588 -0.878791,-0.592673 -0.367866,-0.388303 -0.572236,-0.919665 -0.194152,-0.54158 -0.194152,-1.195564 0,-0.653984 0.194152,-1.185346 0.20437,-0.541581 0.572236,-0.919665 0.367866,-0.388303 0.878791,-0.592673 0.521143,-0.214589 1.15469,-0.214589 0.633547,0 1.144472,0.173715 0.510925,0.173714 0.878791,0.551799 0.367866,0.367866 0.562018,0.960539 0.20437,0.582454 0.20437,1.399934 h -3.576475 q 0,0.183933 0.04087,0.347429 0.05109,0.163496 0.143059,0.296337 0.09197,0.122622 0.235025,0.20437 0.153278,0.07153 0.357648,0.07153 z"
       id="path7473" /><path
       d="m 30.697911,31.839287 q 0.235026,0 0.470051,0 0.245244,0 0.459833,-0.05109 0.214588,-0.04087 0.378084,-0.163496 0.173715,-0.122622 0.255463,-0.378084 l -1.818893,-5.51799 h 1.992607 l 0.797043,2.411566 0.745951,-2.411566 h 1.992607 l -1.788237,5.742797 q -0.143059,0.449614 -0.286118,0.827698 -0.132841,0.378085 -0.357648,0.653984 -0.224807,0.2759 -0.572236,0.429177 -0.347429,0.153278 -0.909446,0.153278 H 30.289171 V 31.83929 Z"
       id="path7475" /></g></svg>
